<?xml version="1.0" standalone="no"?>
<!DOCTYPE svg PUBLIC "-//W3C//DTD SVG 20010904//EN"
 "http://www.w3.org/TR/2001/REC-SVG-20010904/DTD/svg10.dtd">
<svg version="1.0" xmlns="http://www.w3.org/2000/svg"
 width="512.000000pt" height="512.000000pt" viewBox="0 0 512.000000 512.000000"
 preserveAspectRatio="xMidYMid meet">
<metadata>
Created by potrace 1.14, written by Peter Selinger 2001-2017
</metadata>
<g transform="translate(0.000000,512.000000) scale(0.100000,-0.100000)"
fill="#000000" stroke="none">
<path d="M3172 4468 l3 -223 -51 2 c-133 4 -245 -107 -250 -247 -6 -155 111
-273 265 -266 141 6 244 109 250 249 4 101 -71 215 -163 248 l-36 13 0 213 0
213 505 0 505 0 0 -324 0 -324 -27 -7 c-37 -8 -70 -37 -83 -70 -40 -106 74
-205 171 -148 31 18 59 67 59 103 0 40 -30 88 -66 105 l-34 16 0 149 0 150
215 0 215 0 0 -1475 0 -1475 -394 0 -393 0 -6 34 c-18 109 -147 161 -236 95
-97 -71 -73 -218 42 -260 70 -25 161 17 188 87 l9 24 405 0 405 0 0 1495 0
1495 -225 0 -225 0 0 175 0 175 -525 0 -526 0 3 -222z"/>
<path d="M745 4460 c-21 -11 -52 -33 -68 -47 -125 -121 -61 -341 111 -378 l32
-7 0 -379 0 -379 265 0 265 0 -2 -172 -3 -173 -45 4 c-84 8 -490 3 -491 -5 0
-5 15 -13 35 -17 24 -6 38 -17 45 -35 16 -38 10 -777 -6 -793 -6 -6 -26 -14
-45 -18 -69 -14 -18 -26 117 -28 77 -1 157 -2 178 -2 l37 -1 0 -125 0 -125
270 0 270 0 0 -200 0 -200 -40 -6 c-22 -4 -64 -21 -92 -38 -124 -74 -178 -225
-128 -359 43 -115 148 -192 268 -196 22 -1 22 -1 22 -176 l0 -175 1020 0 1020
0 0 400 c0 260 -3 400 -10 400 -6 0 -10 -137 -10 -390 l0 -390 -1000 0 -1000
0 0 165 0 165 28 5 c126 27 223 134 239 263 l6 52 388 0 389 0 0 -130 c0 -80
4 -130 10 -130 6 0 10 53 10 140 l0 140 -401 2 -400 3 -18 52 c-35 102 -115
173 -223 195 l-58 12 -2 205 -3 206 -267 3 -268 2 0 115 0 115 33 1 c297 9
486 205 472 488 -5 100 -18 151 -55 216 -48 83 -117 138 -217 170 l-53 17 0
184 0 184 -265 0 -265 0 0 369 0 369 39 7 c56 9 112 49 147 103 25 41 29 57
29 118 0 64 -3 76 -34 121 -44 64 -97 94 -175 100 -47 3 -70 -1 -101 -17z
m585 -1575 c42 -22 71 -51 97 -95 77 -134 76 -483 -2 -615 -49 -84 -126 -124
-229 -119 -97 4 -91 -23 -91 423 0 365 1 390 19 409 10 12 30 22 45 24 43 5
126 -9 161 -27z"/>
<path d="M1070 4300 c0 -6 122 -10 345 -10 l345 0 0 -334 0 -333 -35 -30 c-71
-61 -84 -164 -30 -242 30 -44 95 -81 141 -81 84 0 163 55 185 129 l12 41 94 0
93 0 0 -374 0 -374 -37 10 c-21 6 -65 8 -99 5 -189 -15 -297 -165 -281 -389 8
-111 30 -167 87 -227 91 -94 268 -103 373 -19 38 31 92 122 82 139 -4 6 -21
-4 -41 -25 -43 -44 -81 -65 -125 -67 -79 -5 -147 48 -170 135 -12 42 -19 143
-12 161 2 7 67 10 178 10 114 0 175 3 176 10 4 28 -1 73 -12 118 -9 37 -23 62
-55 94 l-44 44 0 384 0 385 -104 0 -104 0 -6 33 c-17 88 -109 155 -201 145
l-45 -6 0 339 0 339 -355 0 c-230 0 -355 -4 -355 -10z m1094 -1664 c17 -36 37
-153 29 -173 -4 -9 -34 -13 -103 -13 l-99 0 5 38 c16 117 39 167 88 187 38 16
58 7 80 -39z"/>
<path d="M340 2695 l0 -1605 540 0 c353 0 540 3 540 10 0 7 -183 10 -530 10
l-530 0 0 1585 0 1585 120 0 c73 0 120 4 120 10 0 6 -50 10 -130 10 l-130 0 0
-1605z"/>
<path d="M4190 3235 l0 -535 -139 0 -140 0 4 85 c2 48 9 93 15 101 7 8 30 17
52 20 21 4 37 11 35 17 -5 16 -400 14 -405 -2 -2 -6 5 -11 17 -11 33 0 69 -21
75 -44 3 -11 6 -189 6 -393 0 -360 -1 -374 -20 -393 -11 -11 -27 -21 -35 -21
-8 -1 -20 -2 -27 -3 -6 0 -13 -6 -15 -13 -3 -9 78 -12 354 -10 l358 2 -4 30
c-2 17 -4 86 -5 154 -1 136 -14 166 -34 80 -26 -113 -96 -208 -169 -229 -21
-6 -69 -10 -108 -8 -59 3 -71 6 -80 25 -7 13 -11 122 -10 305 l0 283 148 3
147 3 0 544 c0 357 -3 545 -10 545 -7 0 -10 -185 -10 -535z"/>
<path d="M3140 3500 l0 -220 -260 0 -260 0 0 -176 0 -176 -95 4 c-75 4 -95 2
-95 -9 0 -7 6 -13 13 -14 31 -2 51 -9 66 -24 14 -14 16 -60 16 -388 0 -348 -1
-374 -19 -400 -11 -15 -32 -31 -48 -34 -15 -3 -28 -11 -28 -18 0 -10 31 -13
125 -13 94 0 125 4 125 13 0 7 -17 15 -38 19 -42 6 -65 26 -78 66 -10 32 -12
710 -2 704 5 -3 8 -9 8 -14 0 -5 11 -33 24 -62 13 -29 56 -129 95 -223 172
-416 210 -500 222 -500 7 0 26 34 41 75 16 41 32 84 37 95 5 11 60 155 123
319 l113 299 3 -339 c1 -186 0 -354 -3 -372 -6 -33 -21 -44 -78 -57 -59 -12
-12 -25 84 -22 l99 2 0 -157 0 -158 190 0 190 0 0 -90 c0 -53 4 -90 10 -90 6
0 10 87 10 240 0 153 -4 240 -10 240 -6 0 -10 -53 -10 -140 l0 -140 -180 0
-180 0 0 145 c0 131 2 145 18 146 9 0 50 0 90 0 57 0 72 3 72 14 0 8 -3 14 -7
13 -5 -1 -22 1 -40 4 -24 6 -33 14 -41 40 -6 20 -10 179 -9 401 l2 369 24 19
c13 10 34 19 47 19 13 0 24 6 24 13 0 11 -56 13 -277 8 -13 -1 -23 -6 -23 -12
0 -10 -40 -119 -60 -164 -5 -11 -35 -87 -66 -170 -32 -82 -67 -177 -80 -210
l-23 -60 -16 40 c-9 22 -67 162 -128 310 l-112 270 -53 -2 -52 -1 0 164 0 164
260 0 260 0 0 230 c0 147 -4 230 -10 230 -6 0 -10 -80 -10 -220z"/>
<path d="M2030 1790 l0 -220 545 0 545 0 0 -405 0 -405 -100 0 c-97 0 -101 1
-110 24 -27 73 -134 55 -146 -24 -8 -46 30 -90 76 -90 29 0 80 39 80 61 0 5
50 9 110 9 l110 0 0 425 0 425 -545 0 -545 0 0 210 c0 133 -4 210 -10 210 -6
0 -10 -80 -10 -220z"/>
</g>
</svg>
